# xmcd
#
# Track frame offsets: 
#        150
#        10130
#        19733
#        32076
#        43910
#        57060
#        66219
#        76651
#        88425
#        100514
#        112099
#        122323
#        132347
#        142830
#        154740
#        166585
#        175652
#        187115
#        197478
#        209007
#        220446
#        231187
#        238648
#        249014
#        259358
#        270823
#        281939
#        291121
#        301586
#        311946
#        322836
#        333905
#
# Disc length: 4720 seconds
#
# Revision: 1
# Processed by: cddbd v1.5.2PL0 Copyright (c) Steve Scherf et al.
# Submitted via: ExactAudioCopyFreeDBPlugin 1.0
#
DISCID=bc126e20
DTITLE=Various Artist - The History of New Orleans Rhythm and Blues, 19
DTITLE=55-1962
DYEAR=2014
DGENRE=Rhythm and Blues
TTITLE0=Benny Spellman - Fortune Teller
TTITLE1=Lee Dorsey - Behind the 8 Ball
TTITLE2=Jessie Hill - Oogsey Moo
TTITLE3=Eddie Bo - Now Let's Popeye
TTITLE4=Huey "Piano" Smith and His Clowns - Popeye
TTITLE5=Blazer Boy - New Orleans Twist
TTITLE6=Fats Domino - Let the Four Winds Blow
TTITLE7=Joe Barry - Little Jewel of the Vieux Carre
TTITLE8=Jimmy Jules - Talk About You
TTITLE9=Ernie K-Doe - I Got to Find Somebody
TTITLE10=Joe and Ann - Runnin' and Foolin'
TTITLE11=Lee Dorsey - Do Re Mi
TTITLE12=Barbara Geroge - I Know
TTITLE13=Raymond Lewis - I'm Gonna Put Some Hurt on You
TTITLE14=Johnny Adams - Who's Gonna Love You
TTITLE15=Willie Harper - But I Couldn't
TTITLE16=Willie Tee - Always Accused
TTITLE17=The Turguinettes - Tell Me the Truth
TTITLE18=Eddie Bo - Baby I'm Wise
TTITLE19=The Showman - True Fine Mama
TTITLE20=Calvin Lee - Valley of Tears
TTITLE21=Jessie Hill - The Pot's on Strike
TTITLE22=Junior Gordon - Call the Doctor
TTITLE23=Chick Carbo - In the Night
TTITLE24=Lee Dorsey - People Gonna Talk
TTITLE25=Chris Kenner - Land of 1000 Dances
TTITLE26=Joe and Ann - Curiosity
TTITLE27=Eddie Bo - Roamin' Itis
TTITLE28=Smiley Lewis - I'm Coming Down with the Blues
TTITLE29=Benny Spellman - Lipstick Traces
TTITLE30=Huey "Piano" Smith and His Clowns - Talk to Me Baby
TTITLE31=Earl King and Professor Longhair - Big Chief
EXTD=
EXTT0=
EXTT1=
EXTT2=
EXTT3=
EXTT4=
EXTT5=
EXTT6=
EXTT7=
EXTT8=
EXTT9=
EXTT10=
EXTT11=
EXTT12=
EXTT13=
EXTT14=
EXTT15=
EXTT16=
EXTT17=
EXTT18=
EXTT19=
EXTT20=
EXTT21=
EXTT22=
EXTT23=
EXTT24=
EXTT25=
EXTT26=
EXTT27=
EXTT28=
EXTT29=
EXTT30=
EXTT31=
PLAYORDER=
